<?xml version="1.0" encoding="iso-8859-1"?>
<!-- Generator: Adobe Illustrator 19.0.0, SVG Export Plug-In . SVG Version: 6.00 Build 0)  -->
<svg version="1.1" id="Layer_1" xmlns="http://www.w3.org/2000/svg" xmlns:xlink="http://www.w3.org/1999/xlink" x="0px" y="0px"
	 viewBox="0 0 219.945 219.945" style="enable-background:new 0 0 219.945 219.945;" xml:space="preserve">
<g>
	<g>
		<g>
			<path d="M183.021,112.989c20.769-2.534,36.924-20.244,36.924-41.69c0-23.178-18.859-42.032-42.035-42.032
				c-21.053,0-38.484,15.572-41.515,35.791L41.852,53.724l-6.904-40.28H0v15.217h22.116l3.969,23.173l-0.32-0.038L43.95,152.232
				h0.383l2.214,9.049c-10.774,1.798-19.021,11.162-19.021,22.44c0,12.562,10.218,22.78,22.777,22.78
				c12.559,0,22.777-10.218,22.777-22.78c0-2.653-0.479-5.189-1.316-7.558h69.512c-0.837,2.371-1.319,4.908-1.319,7.558
				c0,12.562,10.218,22.78,22.78,22.78c12.557,0,22.775-10.218,22.775-22.78c0-12.559-10.218-22.775-22.775-22.775H62.126
				l-2.13-8.714h114.012L183.021,112.989z M162.744,176.163c4.165,0,7.558,3.391,7.558,7.558c0,4.172-3.393,7.563-7.558,7.563
				c-4.172,0-7.563-3.393-7.563-7.563C155.181,179.552,158.574,176.163,162.744,176.163z M177.911,44.487
				c14.786,0,26.818,12.029,26.818,26.815s-12.032,26.815-26.818,26.815s-26.813-12.029-26.813-26.815
				S163.125,44.487,177.911,44.487z M50.308,191.284c-4.169,0-7.56-3.393-7.56-7.563c0-4.169,3.391-7.558,7.56-7.558
				s7.56,3.391,7.56,7.558C57.868,187.893,54.477,191.284,50.308,191.284z M161.89,137.012H56.661v0.003l-10.056-55.55
				l-2.072-12.093l92.378,11.076c3.447,15.458,15.425,27.695,30.721,31.56L161.89,137.012z"/>
			<polygon points="170.302,89.007 185.519,89.007 185.519,79.334 195.197,79.334 195.197,64.117 185.519,64.117 185.519,54.439 
				170.302,54.439 170.302,64.117 160.627,64.117 160.627,79.334 170.302,79.334 			"/>
		</g>
	</g>
</g>
<g>
</g>
<g>
</g>
<g>
</g>
<g>
</g>
<g>
</g>
<g>
</g>
<g>
</g>
<g>
</g>
<g>
</g>
<g>
</g>
<g>
</g>
<g>
</g>
<g>
</g>
<g>
</g>
<g>
</g>
</svg>
